SplineFontDB: 3.2
FontName: WaniRadicals
FullName: WaniRadicals
FamilyName: WaniRadicals
Weight: Regular
Copyright: Copyright (c) 2021, Alessandro Nikolaev
UComments: "2021-7-23: Created with FontForge (http://fontforge.org)"
Version: 001.000
ItalicAngle: 0
UnderlinePosition: -102
UnderlineWidth: 51
Ascent: 819
Descent: 205
InvalidEm: 0
LayerCount: 2
Layer: 0 0 "Back" 1
Layer: 1 0 "Fore" 0
XUID: [1021 551 -481687348 31237]
OS2Version: 0
OS2_WeightWidthSlopeOnly: 0
OS2_UseTypoMetrics: 1
CreationTime: 1627078416
ModificationTime: 1627080712
OS2TypoAscent: 0
OS2TypoAOffset: 1
OS2TypoDescent: 0
OS2TypoDOffset: 1
OS2TypoLinegap: 0
OS2WinAscent: 0
OS2WinAOffset: 1
OS2WinDescent: 0
OS2WinDOffset: 1
HheadAscent: 0
HheadAOffset: 1
HheadDescent: 0
HheadDOffset: 1
OS2Vendor: 'PfEd'
MarkAttachClasses: 1
DEI: 91125
Encoding: UnicodeFull
UnicodeInterp: none
NameList: AGL For New Fonts
DisplaySize: -48
AntiAlias: 1
FitToEm: 0
WinInfo: 57304 38 14
BeginPrivate: 0
EndPrivate
BeginChars: 1114112 38

StartChar: uniE000
Encoding: 57344 57344 0
Width: 1024
Flags: H
LayerCount: 2
Fore
SplineSet
282 17 m 2
 276.649165125 26.8098639369 266.526424608 57.2979856587 266.526424608 65.9082332797 c 0
 266.526424608 66.9528314792 266.675417437 67.6754174373 267 68 c 0
 268 69 287 77 309 86 c 0
 355 104 434 144 476 171 c 0
 496.302904647 184.24102477 503.359051391 190.469060061 503.359051391 195.874717034 c 0
 503.359051391 196.592819816 503.234530031 197.296409908 503 198 c 0
 497 213 473 300 471 316 c 0
 468.761355821 327.75288194 469.968136977 332.928133695 453.584667001 332.928133695 c 0
 440.694221758 332.928133695 416.914573434 329.724406418 372 324 c 0
 329 318 294 315 293 315 c 0
 291.245698587 316.754301413 285.644430366 356.208877549 285.644430366 367.2260832 c 0
 285.644430366 368.769097327 285.754301413 369.754301413 286 370 c 0
 287 371 325 376 371 382 c 0
 417 388 454 393 455 393 c 0
 455.039867566 393.039867566 455.059072636 393.200531269 455.059072636 393.472359412 c 0
 455.059072636 400.018809084 443.920264867 471.039867566 442 472 c 0
 441.822875656 472.177124344 440.861425476 472.260129589 439.226788021 472.260129589 c 0
 431.632668921 472.260129589 409.509145322 470.468626967 384 468 c 0
 352 465 326 463 325 463 c 0
 322.133939444 466.582575695 319.781272832 492.241090999 319.781272832 507.604346971 c 0
 319.781272832 513.682725845 320.149545417 518.149545417 321 519 c 0
 324 520 351 524 381 526 c 2
 437 532 l 1
 434 553 l 2
 433 564 432 580 431 588 c 0
 431 604.779672745 431 610.297048793 411.951052585 610.297048793 c 0
 402.619012324 610.297048793 388.715224683 608.972878541 368 607 c 0
 344 604.75 322.8125 603.625 313.296875 603.625 c 0
 310.125 603.625 308.25 603.75 308 604 c 0
 306 605 305 618 304 633 c 0
 303 654 304 660 309 660 c 0
 312 661 339 663 369 666 c 2
 424 671 l 1
 421 736 l 1
 418 801 l 1
 476 801 l 1
 479 740 l 1
 482 678 l 1
 494 678 l 2
 502 678 551 683 604 688 c 0
 647.449606844 692.099019514 684.850507738 695.525960588 698.020609286 695.525960588 c 0
 700.915449005 695.525960588 702.639607805 695.360392195 703 695 c 0
 704 694 706 681 707 666 c 2
 708 639 l 1
 488 619 l 1
 491 580 l 2
 492 559 494 541 495 540 c 0
 495.104356076 539.895643924 495.655209969 539.845738801 496.617331494 539.845738801 c 0
 504.874812312 539.845738801 543.426515966 543.521780381 590 548 c 0
 635.737067917 553.38083152 675.040058536 557.153143715 683.385985991 557.153143715 c 0
 684.346345965 557.153143715 684.896805253 557.103194747 685 557 c 0
 688.023715784 553.976284216 691.047431568 525.238282718 691.047431568 510.526260096 c 0
 691.047431568 505.776106147 690.732213162 502.488142108 690 502 c 0
 687 500 645 495 595 490 c 0
 544 485 503 480 502 480 c 0
 501.956692215 479.913384429 501.935891201 479.689852666 501.935891201 479.341263785 c 0
 501.935891201 471.640748381 512.086615571 402.913384429 514 401 c 0
 515 401 564 406 624 414 c 0
 679.574385243 420.483678278 725.711649584 426.109436475 733.010124652 426.109436475 c 0
 733.591331962 426.109436475 733.926239754 426.073760246 734 426 c 0
 735.754301413 424.245698587 741.355569634 384.791122451 741.355569634 373.7739168 c 0
 741.355569634 372.230902673 741.245698587 371.245698587 741 371 c 0
 740 371 692 364 635 357 c 0
 577 349 529 342 527 341 c 0
 526.831326255 340.775101674 526.751166211 340.253050212 526.751166211 339.467082498 c 0
 526.751166211 326.273973945 549.337347489 238.718877092 555 234 c 0
 555.669779554 233.162775557 556.451710271 232.662004603 557.547667895 232.662004603 c 0
 562.99689438 232.662004603 576.209468871 245.042023982 622 290 c 2
 655 322 l 1
 696 280 l 1
 669 254 l 2
 655 239 628 214 611 200 c 0
 593 185 579 171 579 168 c 0
 579 165 588 149 600 132 c 0
 620 101 646 80 662 80 c 0
 678 80 693 110 697 152 c 2
 700 180 l 1
 727 179 l 2
 741 178 755 176 756 175 c 0
 757.298591143 174.257947918 757.87446559 171.175670346 757.87446559 166.493762971 c 0
 757.87446559 145.938048937 746.773843755 94.5476875103 737 75 c 0
 727 55 704 32 687 26 c 0
 679.370604978 23.1177841026 671.338786569 21.7302836409 663.07511405 21.7302836409 c 0
 622.59766591 21.7302836409 576.557399759 55.0202372546 545 109 c 2
 529 136 l 1
 494 114 l 2
 453 88 366 45 319 27 c 0
 295.060729822 17.5502880876 287.790243286 14.4505889914 284.93735791 14.4505889914 c 0
 283.261715746 14.4505889914 283.110057618 15.5199231766 282 17 c 2
 282 17 l 2
574 735 m 1
 539 771 l 1
 576 814 l 1
 595 797 l 2
 606 788 623 771 634 759 c 2
 653 737 l 1
 610 700 l 1
 574 735 l 1
EndSplineSet
EndChar

StartChar: uniE001
Encoding: 57345 57345 1
Width: 1024
Flags: H
LayerCount: 2
Fore
SplineSet
205 395 m 1
 205 769 l 1
 787 769 l 1
 787 482 l 1
 262 482 l 1
 262 391 l 1
 820 391 l 1
 820 22 l 1
 762 22 l 1
 762 72 l 1
 262 72 l 1
 262 22 l 1
 205 22 l 1
 205 395 l 1
762 231 m 1
 762 334 l 1
 262 334 l 1
 262 129 l 1
 762 129 l 1
 762 231 l 1
729 625 m 1
 729 711 l 1
 262 711 l 1
 262 539 l 1
 729 539 l 1
 729 625 l 1
EndSplineSet
EndChar

StartChar: uniE002
Encoding: 57346 57346 2
Width: 1024
Flags: H
LayerCount: 2
Fore
SplineSet
423 18 m 1
 370 23 l 1
 371 49 l 2
 372.702073933 75.3821459579 373.679883947 81.4849022075 379.480808354 81.4849022075 c 0
 380.496185278 81.4849022075 381.659332697 81.2979260672 383 81 c 0
 396.333333333 76.8333333333 497.166666667 71.2777777778 542.560185185 71.2777777778 c 0
 551.638888889 71.2777777778 558.5 71.5 562 72 c 0
 593 76 609 87 625 119 c 0
 645 160 666 273 677 407 c 2
 680 439 l 1
 493 439 l 2
 347 439 305 438 304 434 c 0
 303 431 299 418 296 406 c 2
 289 382 l 1
 262 390 l 2
 247 394 235 398 234 399 c 0
 233.995594971 399.008810058 233.99340203 399.025168379 233.99340203 399.04900855 c 0
 233.99340203 404.437203634 346.013215086 792.013215086 349 795 c 0
 349.195752358 795.195752358 349.765114829 795.286127506 350.640578125 795.286127506 c 0
 358.709715065 795.286127506 392.783009434 787.608495283 400 784 c 0
 400.392304845 783.607695155 400.592230826 782.599777942 400.592230826 780.991342595 c 0
 400.592230826 774.399851961 397.234628196 757.723122473 390 732 c 0
 382 705 376 682 376 680 c 0
 376 678 469 677 583 677 c 2
 790 677 l 1
 790 619 l 1
 357 619 l 1
 341 563 l 2
 332 532 324 504 323 502 c 0
 322.988993872 501.944969362 322.983438813 501.890423264 322.983438813 501.836357705 c 0
 322.983438813 496.97810888 367.838023306 496 533 496 c 2
 744 496 l 1
 742 477 l 2
 741 466 737 420 732 373 c 0
 710 140 682 59 614 26 c 0
 592 15 587 15 534 14 c 0
 502 14 452 15 423 18 c 1
 423 18 l 1
EndSplineSet
EndChar

StartChar: uniE003
Encoding: 57347 57347 3
Width: 1024
Flags: H
LayerCount: 2
Fore
SplineSet
122 142 m 1
 122 171 l 1
 319 171 l 1
 319 442 l 1
 155 442 l 1
 155 499 l 1
 319 499 l 1
 319 663 l 1
 377 663 l 1
 377 499 l 1
 647 499 l 1
 647 663 l 1
 705 663 l 1
 705 499 l 1
 869 499 l 1
 869 442 l 1
 705 442 l 1
 705 171 l 1
 902 171 l 1
 902 114 l 1
 122 114 l 1
 122 142 l 1
647 306 m 1
 647 442 l 1
 377 442 l 1
 377 171 l 1
 647 171 l 1
 647 306 l 1
EndSplineSet
EndChar

StartChar: uniE004
Encoding: 57348 57348 4
Width: 1024
Flags: H
LayerCount: 2
Fore
SplineSet
154 169 m 1
 154 198 l 1
 401 198 l 1
 401 321 l 1
 237 321 l 1
 237 593 l 1
 294 593 l 1
 294 379 l 1
 401 379 l 1
 401 658 l 1
 459 658 l 1
 459 198 l 1
 565 198 l 1
 565 658 l 1
 623 658 l 1
 623 379 l 1
 730 379 l 1
 730 593 l 1
 787 593 l 1
 787 321 l 1
 623 321 l 1
 623 198 l 1
 870 198 l 1
 870 141 l 1
 154 141 l 1
 154 169 l 1
EndSplineSet
EndChar

StartChar: uniE005
Encoding: 57349 57349 5
Width: 1024
Flags: H
LayerCount: 2
Fore
SplineSet
614 58 m 1
 614 87 l 1
 694 88 l 2
 780 90 786 91 802 115 c 0
 809 125 809 147 810 423 c 2
 811 719 l 1
 155 719 l 1
 155 776 l 1
 869 776 l 1
 868 445 l 2
 867 119 866 114 858 96 c 0
 847 72 827 52 803 41 c 0
 787 33 775 32 699 31 c 2
 614 30 l 1
 614 58 l 1
EndSplineSet
EndChar

StartChar: uniE006
Encoding: 57350 57350 6
Width: 1024
Flags: H
LayerCount: 2
Fore
SplineSet
231 9 m 2
 224.754168597 18.8148779183 214.527683123 49.3291570127 214.527683123 57.9214186416 c 0
 214.527683123 58.9589128492 214.676784887 59.6767848868 215 60 c 0
 217 61 246 73 279 86 c 0
 358 116 407 141 427 162 c 2
 443 178 l 1
 220 178 l 1
 220 236 l 1
 343 236 l 2
 366.489361702 236 385.603893164 235.884110457 401.177012801 235.884110457 c 0
 477.095971028 235.884110457 468.85106383 238.638297872 473 271 c 2
 475 293 l 1
 269 293 l 1
 269 350 l 1
 477 350 l 1
 480 369 l 2
 481 380 482 393 482 398 c 2
 482 408 l 1
 286 408 l 1
 286 596 l 1
 384 596 l 1
 384 662 l 1
 253 662 l 1
 253 719 l 1
 384 719 l 1
 384 793 l 1
 441 793 l 1
 441 719 l 1
 581 719 l 1
 581 793 l 1
 638 793 l 1
 638 719 l 1
 802 719 l 1
 802 662 l 1
 638 662 l 1
 638 596 l 1
 737 596 l 1
 737 408 l 1
 540 408 l 1
 540 351 l 1
 755 348 l 1
 755 295 l 1
 647 294 l 2
 587 293 537 291 535 290 c 0
 534 288 531 275 530 261 c 2
 527 236 l 1
 802 236 l 1
 802 178 l 1
 571 178 l 1
 583 168 l 2
 621 138 693 102 770 75 c 0
 791 68 809 62 809 61 c 0
 809.117005545 60.9414972276 809.172404751 60.7358237571 809.172404751 60.3991982256 c 0
 809.172404751 54.9818138569 794.824491683 15.6489833657 792 10 c 0
 791.738053467 9.54159356667 790.948621538 9.32334308547 789.688714608 9.32334308547 c 0
 771.709475065 9.32334308547 657.922128233 53.7681391 614 79 c 0
 579 99 546 122 524 143 c 0
 504 162 502 163 498 156 c 0
 496 151 481 135 466 120 c 0
 443 98 430 89 392 70 c 0
 366 58 323 39 296 29 c 0
 269 19 244 9 240 8 c 0
 236 7 232 7 231 9 c 2
 231 9 l 2
482 502 m 1
 482 539 l 1
 343 539 l 1
 343 465 l 1
 482 465 l 1
 482 502 l 1
679 502 m 1
 679 539 l 1
 540 539 l 1
 540 465 l 1
 679 465 l 1
 679 502 l 1
581 629 m 1
 581 662 l 1
 441 662 l 1
 441 596 l 1
 581 596 l 1
 581 629 l 1
EndSplineSet
EndChar

StartChar: uniE007
Encoding: 57351 57351 7
Width: 1024
Flags: H
LayerCount: 2
Fore
SplineSet
282 361 m 1
 268 403 l 1
 176 405 l 1
 176 461 l 1
 304 464 l 2
 541 469 651 483 804 528 c 2
 831 535 l 1
 848 481 l 1
 808 468 l 2
 772.321662172 456.383796986 766.935118161 453.717442146 765.563941303 453.717442146 c 0
 765.282557854 453.717442146 765.170271213 453.829728787 765 454 c 0
 764.770540947 454.183567242 764.661127216 454.31237697 764.661127216 454.39097177 c 0
 764.661127216 454.454825285 764.733346605 454.485534045 764.872084118 454.485534045 c 0
 768.248193998 454.485534045 811.014244685 436.300772311 811.014244685 435.034263391 c 0
 811.014244685 435.020962857 811.009528174 435.009528174 811 435 c 0
 810 433 800 406 787 375 c 2
 765 319 l 1
 733 319 l 2
 702 319 701 319 705 328 c 0
 707 333 719 363 731 394 c 0
 744 424 754 450 754 451 c 0
 754 451.127016654 753.693468624 451.189500386 753.111143705 451.189500386 c 0
 749.108834235 451.189500386 732.078616963 448.237900077 712 443 c 0
 666 433 567 417 546 417 c 0
 539 417 533 416 533 414 c 0
 533 412 539 392 547 368 c 0
 555 345 562 324 562 322 c 0
 562 320 548 319 532 319 c 2
 502 319 l 1
 487 363 l 1
 470 409 l 1
 387 407 l 1
 328 404 l 1
 343 365 l 2
 350 344 357 325 357 323 c 0
 357 321 343 319 327 319 c 2
 296 319 l 1
 282 361 l 1
EndSplineSet
EndChar

StartChar: uniE008
Encoding: 57352 57352 8
Width: 1024
Flags: H
LayerCount: 2
Fore
SplineSet
390 86 m 1
 390 157 l 1
 359 156 l 1
 357 182 l 2
 356 197 355 210 355 210 c 0
 356 211 364 213 373 214 c 2
 390 216 l 1
 390 732 l 1
 399 733 l 2
 404 734 427 738 449 742 c 0
 503 751 568 770 610 788 c 0
 627.606348407 795.413199329 642.636656612 801.109038524 645.54257487 801.109038524 c 0
 645.77259631 801.109038524 645.926649916 801.073350084 646 801 c 0
 649 797 669 756 669 753 c 0
 669 741 537 698 463 685 c 2
 447 682 l 1
 447 596 l 1
 648 596 l 1
 648 539 l 1
 447 539 l 1
 447 416 l 1
 648 416 l 1
 648 359 l 1
 447 359 l 1
 447 222 l 1
 477 225 l 2
 503 228 602 243 635 250 c 2
 649 253 l 1
 647 223 l 1
 646 193 l 1
 632 190 l 2
 624 188 585 182 546 176 c 0
 506 170 468 165 461 164 c 2
 447 161 l 1
 447 14 l 1
 390 14 l 1
 390 86 l 1
EndSplineSet
EndChar

StartChar: uniE009
Encoding: 57353 57353 9
Width: 1024
Flags: H
LayerCount: 2
Fore
SplineSet
254 146 m 1
 254 175 l 1
 770 175 l 1
 770 118 l 1
 254 118 l 1
 254 146 l 1
162 160 m 1
 143 181 l 1
 178 214 l 2
 220 255 251 292 285 343 c 0
 309 380 346 450 364 492 c 2
 372 511 l 1
 172 511 l 1
 172 569 l 1
 412 569 l 1
 440 531 l 1
 430 502 l 2
 415 458 365 359 333 310 c 0
 292 248 243 190 200 154 c 2
 181 138 l 1
 162 160 l 1
818 160 m 1
 755 207 691 275 642 349 c 0
 618 385 565 488 565 498 c 0
 565 505 561 505 550 497 c 0
 541 491 541 489 541 391 c 0
 541 281 539 272 512 245 c 0
 489 223 471 216 425 216 c 2
 385 216 l 1
 385 274 l 1
 420 274 l 2
 455 274 456 274 469 288 c 2
 483 301 l 1
 483 552 l 1
 507 552 l 2
 529 552 532 554 559 575 c 0
 575 587 602 611 619 628 c 2
 649 659 l 1
 287 659 l 1
 287 716 l 1
 711 714 l 1
 734 671 l 1
 714 646 l 2
 703 632 675 602 652 580 c 2
 611 540 l 1
 622 512 l 2
 629 497 640 472 648 456 c 2
 662 428 l 1
 700 471 l 2
 721 494 752 532 770 555 c 2
 801 597 l 1
 848 564 l 1
 835 545 l 2
 814 514 761 450 726 412 c 2
 692 377 l 1
 717 343 l 2
 752 297 804 244 846 212 c 2
 881 186 l 1
 864 162 l 2
 855 149 847 138 847 138 c 0
 846 138 833 148 818 160 c 1
 818 160 l 1
EndSplineSet
EndChar

StartChar: uniE00A
Encoding: 57354 57354 10
Width: 1024
Flags: H
LayerCount: 2
Fore
SplineSet
205 333 m 1
 205 476 l 1
 820 476 l 1
 820 189 l 1
 205 189 l 1
 205 333 l 1
762 333 m 1
 762 419 l 1
 262 419 l 1
 262 247 l 1
 762 247 l 1
 762 333 l 1
155 579 m 1
 155 608 l 1
 869 608 l 1
 869 550 l 1
 155 550 l 1
 155 579 l 1
EndSplineSet
EndChar

StartChar: uniE00B
Encoding: 57355 57355 11
Width: 1024
Flags: H
LayerCount: 2
Fore
SplineSet
270 263 m 1
 270 505 l 1
 508 505 l 1
 508 301 l 2
 508 113 507 96 500 81 c 0
 484 44 449 22 409 22 c 2
 385 21 l 1
 385 79 l 1
 404 79 l 2
 420 79 425 81 437 93 c 0
 451 107 451 107 451 146 c 2
 451 185 l 1
 328 185 l 1
 328 21 l 1
 270 21 l 1
 270 263 l 1
451 280 m 1
 451 317 l 1
 328 317 l 1
 328 243 l 1
 451 243 l 1
 451 280 l 1
451 411 m 1
 451 448 l 1
 328 448 l 1
 328 374 l 1
 451 374 l 1
 451 411 l 1
582 50 m 1
 582 79 l 1
 669 79 l 1
 697 107 l 1
 697 505 l 1
 754 505 l 1
 754 301 l 2
 754 286.8125 754.00390625 273.53515625 754.00390625 261.102294922 c 0
 754.00390625 74.609375 753.125 78.125 725 50 c 0
 701 27 684 22 630 22 c 2
 582 21 l 1
 582 50 l 1
565 313 m 1
 565 472 l 1
 623 472 l 1
 623 153 l 1
 565 153 l 1
 565 313 l 1
256 563 m 2
 248 579 245 589 248 590 c 0
 251 591 269 601 289 612 c 0
 358 652 419 703 468 763 c 0
 492 792 492 792 512 792 c 0
 532 792 532 792 556 763 c 0
 606 703 666 652 735 612 c 0
 755 601 774 591 776 590 c 0
 776.680585828 589.773138057 776.988040683 588.928680023 776.988040683 587.609653883 c 0
 776.988040683 577.300232131 758.205983201 538 752 538 c 0
 750 538 731 547 712 559 c 0
 692 570 675 579 674 579 c 0
 673 579 672 572 672 563 c 2
 672 546 l 1
 352 546 l 1
 352 563 l 2
 352 572 351 579 350 579 c 0
 349 579 332 570 312 559 c 0
 293 547 275 538 272 538 c 0
 270 538 262 549 256 563 c 2
 256 563 l 2
619 619 m 2
 609 627 580 654 556 678 c 2
 512 722 l 1
 468 678 l 2
 444 654 416 627 405 619 c 2
 387 604 l 1
 637 604 l 1
 619 619 l 2
EndSplineSet
EndChar

StartChar: uniE00C
Encoding: 57356 57356 12
Width: 1024
Flags: H
LayerCount: 2
Fore
SplineSet
608 110 m 2
 608 180.3125 607.12109375 189.1015625 602.067382812 189.1015625 c 0
 601.73046875 189.1015625 601.375 189.0625 601 189 c 0
 597 187 581 183 565 178 c 0
 488.492217418 156.540500008 344.083128761 125.505174799 321.020695004 125.505174799 c 0
 319.36512617 125.505174799 318.334891306 125.665108694 318 126 c 0
 316.219223594 127.780776406 309.681700273 168.40831928 309.681700273 178.705223432 c 0
 309.681700273 179.972830259 309.780776406 180.780776406 310 181 c 0
 311 182 326 185 344 187 c 2
 376 192 l 1
 377 390 l 1
 378 588 l 1
 329 588 l 1
 329 645 l 1
 493 645 l 1
 493 719 l 1
 362 719 l 1
 362 776 l 1
 682 776 l 1
 682 719 l 1
 550 719 l 1
 550 645 l 1
 714 645 l 1
 714 588 l 1
 665 588 l 1
 665 30 l 1
 608 30 l 1
 608 110 l 2
493 219 m 1
 519 226 555 236 574 242 c 2
 608 252 l 1
 608 309 l 1
 436 309 l 1
 436 258 l 2
 436 219 437 206 441 206 c 0
 444 206 467 212 493 219 c 1
 493 219 l 1
608 407 m 1
 608 448 l 1
 436 448 l 1
 436 366 l 1
 608 366 l 1
 608 407 l 1
608 547 m 1
 608 588 l 1
 436 588 l 1
 436 506 l 1
 608 506 l 1
 608 547 l 1
EndSplineSet
EndChar

StartChar: uniE00D
Encoding: 57357 57357 13
Width: 1024
Flags: H
LayerCount: 2
Fore
SplineSet
223 197 m 1
 216 210 212 222 213 223 c 0
 214 224 234 234 258 246 c 0
 311 273 359 305 410 348 c 2
 450 381 l 1
 487 337 l 1
 447 303 l 2
 425 285 389 257 366 242 c 0
 328 217 247 172 238 172 c 0
 236 172 229 183 223 197 c 1
 223 197 l 1
742 197 m 1
 694 235 642 271 592 299 c 0
 567 312 545 324 543 325 c 0
 542.342329219 325.219223594 542.045100818 326.015154995 542.045100818 327.258732331 c 0
 542.045100818 337.36044238 561.657670781 377 567 377 c 0
 575 377 660 328 701 300 c 0
 752 265 811 218 811 212 c 0
 811 205 783 172 777 172 c 0
 774 172 758 184 742 197 c 1
 742 197 l 1
430 447 m 2
 402 472 327 521 276 548 c 0
 251 560 230 572 229 573 c 0
 228.830950547 573.112699636 228.750809548 573.371463162 228.750809548 573.759471375 c 0
 228.750809548 580.257168014 251.225399271 623 255 623 c 0
 273 623 429 526 468 491 c 2
 487 473 l 1
 448 431 l 1
 430 447 l 2
551 459 m 1
 544 472 540 484 541 485 c 0
 542 486 565 498 592 512 c 0
 650 541 692 568 731 602 c 0
 746.321339044 614.448587974 759.808745041 625.063242899 762.681496112 625.063242899 c 0
 762.808745041 625.063242899 762.915167381 625.04241631 763 625 c 0
 764 624 773 614 782 603 c 2
 799 583 l 1
 769 557 l 2
 753 544 725 522 707 510 c 0
 674 489 574 434 567 434 c 0
 564 434 557 445 551 459 c 1
 551 459 l 1
EndSplineSet
EndChar

StartChar: uniE00E
Encoding: 57358 57358 14
Width: 1024
Flags: H
LayerCount: 2
Fore
SplineSet
143 166 m 2
 136 177 131 188 131 190 c 0
 131 192 150 206 173 220 c 0
 223 252 271 291 305 325 c 2
 329 350 l 1
 139 350 l 1
 139 408 l 1
 376 408 l 1
 397 441 l 2
 408 460 418 477 418 478 c 0
 418 480 366 482 303 482 c 2
 188 482 l 1
 188 539 l 1
 328 541 l 1
 301 586 l 2
 286 611 274 632 274 633 c 0
 274 636 314 662 319 662 c 0
 324 662 358 607 377 568 c 2
 391 539 l 1
 447 539 l 1
 455 557 l 2
 459 567 469 596 476 622 c 0
 484 649 491 671 493 673 c 0
 493.350714432 673.350714432 494.275431721 673.510094577 495.638346772 673.510094577 c 0
 505.933763353 673.510094577 541.233809621 664.415475947 543 660 c 0
 543.295836543 659.408326913 543.436083291 658.369333162 543.436083291 656.942473062 c 0
 543.436083291 643.899922958 531.718041645 598.449961479 520 566 c 0
 516 553 512 541 512 540 c 0
 512 540 531 539 554 539 c 2
 597 539 l 1
 621 577 l 2
 635 598 652 625 659 638 c 0
 667 651 674 662 676 662 c 0
 678 662 690 656 702 649 c 2
 725 636 l 1
 712 613 l 2
 705 601 692 579 683 566 c 2
 668 541 l 1
 836 539 l 1
 836 482 l 1
 721 482 l 2
 658 482 606 480 606 478 c 0
 606 477 616 460 627 441 c 2
 648 408 l 1
 885 408 l 1
 885 350 l 1
 695 350 l 1
 719 325 l 2
 753 291 801 252 851 220 c 0
 874 206 893 192 893 190 c 0
 893 184 868 145 864 145 c 0
 858 145 795 186 760 213 c 0
 723 241 656 304 635 332 c 2
 621 350 l 1
 403 350 l 1
 389 332 l 2
 368 304 301 241 264 213 c 0
 229 186 166 145 160 145 c 0
 158 145 150 155 143 166 c 2
 143 166 l 2
558 445 m 1
 539 481 l 1
 485 481 l 1
 447 408 l 1
 577 408 l 1
 558 445 l 1
EndSplineSet
EndChar

StartChar: uniE00F
Encoding: 57359 57359 15
Width: 1024
Flags: H
LayerCount: 2
Fore
SplineSet
165 388 m 2
 157 404 152 419 152 421 c 0
 152 422 166 422 183 422 c 2
 214 420 l 1
 241 357 l 1
 177 357 l 1
 165 388 l 2
491 364 m 2
 490 368 483 387 476 405 c 2
 463 439 l 1
 526 437 l 1
 539 402 l 2
 547 383 553 365 553 362 c 0
 553 358 545 357 523 357 c 0
 498 357 493 358 491 364 c 2
 491 364 l 2
776 362 m 1
 795 411 817 466 818 467 c 0
 819 467 831 463 846 457 c 2
 872 447 l 1
 837 359 l 1
 806 358 l 2
 781 357 774 358 776 362 c 1
 776 362 l 1
EndSplineSet
EndChar

StartChar: uniE010
Encoding: 57360 57360 16
Width: 1024
Flags: H
LayerCount: 2
Fore
SplineSet
138 234 m 1
 116 254 l 1
 151 295 l 2
 232 390 275 477 293 578 c 0
 297 600 299 604 304 603 c 0
 308 602 320 600 331 598 c 0
 342 597 351 593 352 590 c 0
 352.310587332 589.22353167 352.458390836 587.946653794 352.458390836 586.231628346 c 0
 352.458390836 565.859140597 331.602357006 483.661186181 315 444 c 0
 314.827574267 443.59767329 314.717913205 443.215167002 314.717913205 442.851531817 c 0
 314.717913205 436.888352915 344.208018896 436 610 436 c 2
 908 436 l 1
 908 379 l 1
 285 379 l 1
 262 345 l 2
 240 312 203 263 173 230 c 2
 159 215 l 1
 138 234 l 1
EndSplineSet
EndChar

StartChar: uniE011
Encoding: 57361 57361 17
Width: 1024
Flags: H
LayerCount: 2
Fore
SplineSet
125 239 m 1
 118 252 114 264 115 265 c 0
 116 266 130 273 146 282 c 0
 185 301 246 343 297 384 c 0
 349 427 435 516 459 552 c 2
 477 579 l 1
 547 579 l 1
 565 552 l 2
 587 519 671 432 718 391 c 0
 764 352 832 306 873 284 c 0
 892 274 908 266 909 265 c 0
 909.175614172 264.824385828 909.258707332 264.494569969 909.258707332 264.029207535 c 0
 909.258707332 256.544828297 887.765847771 214 884 214 c 0
 876 214 809 253 768 280 c 0
 689 334 596 418 541 487 c 0
 526 505 513 520 512 520 c 0
 510 520 499 508 488 493 c 0
 432 423 326 327 246 274 c 0
 204 246 148 215 141 214 c 0
 138 214 131 225 125 239 c 1
 125 239 l 1
EndSplineSet
EndChar

StartChar: uniE012
Encoding: 57362 57362 18
Width: 1024
Flags: H
LayerCount: 2
Fore
SplineSet
146 110 m 1
 125 129 l 1
 161 172 l 2
 204 225 217 244 236 282 c 0
 252 313 272 374 280 412 c 2
 285 436 l 1
 341 436 l 1
 350 396 l 2
 355 374 362 349 365 340 c 2
 371 325 l 1
 402 346 l 2
 500 414 623 528 696 616 c 2
 731 659 l 1
 186 661 l 1
 186 718 l 1
 791 716 l 1
 814 673 l 1
 777 625 l 2
 686 506 571 395 447 308 c 0
 424 291 404 278 403 277 c 0
 402.871401549 276.871401549 402.808953344 276.693190413 402.808953344 276.468832334 c 0
 402.808953344 271.459268598 433.943055307 243.442740046 455 231 c 0
 522 190 637 168 812 162 c 2
 899 160 l 1
 899 102 l 1
 806 105 l 2
 543 112 406 158 338 264 c 0
 328 278 320 294 319 299 c 0
 316 309 309 312 309 303 c 0
 309 292 268 215 247 187 c 0
 228 162 170 91 168 91 c 0
 168 91 158 100 146 110 c 2
 146 110 l 1
EndSplineSet
EndChar

StartChar: uniE013
Encoding: 57363 57363 19
Width: 1024
Flags: H
LayerCount: 2
Fore
SplineSet
317 255 m 2
 314 260 298 288 282 317 c 0
 244 384 206 443 172 484 c 2
 147 516 l 1
 191 553 l 1
 214 526 l 2
 261.739784765 467.543120695 370.22991154 290.433229654 370.22991154 271.18890702 c 0
 370.22991154 270.680903293 370.15431207 270.282905461 370 270 c 0
 367 266 330 246 325 246 c 0
 324 246 320 250 317 255 c 2
 317 255 l 2
694 259 m 2
 684 266 675 274 675 276 c 0
 675 278 688 299 703 323 c 0
 740 379 775 441 804 500 c 0
 817 526 828 548 829 548 c 0
 830 549 842 545 855 539 c 0
 870 532 877.5 529.5 877.5 521.375 c 0
 877.5 513.25 870 499.5 855 470 c 0
 813 385 728 246 718 246 c 0
 716 246 705 252 694 259 c 2
 694 259 l 2
EndSplineSet
EndChar

StartChar: uniE014
Encoding: 57364 57364 20
Width: 1024
Flags: H
LayerCount: 2
Fore
SplineSet
836 221 m 2
 704 265 615 319 533 405 c 0
 493 446 441 514 441 525 c 0
 441 530 477 556 484 556 c 0
 487 556 499 540 513 520 c 0
 537 485 602 412 610 412 c 0
 616 412 693 480 734 521 c 2
 771 559 l 1
 814 521 l 1
 788 492 l 2
 774 476 738 443 710 419 c 0
 682.588224822 394.525200734 659.968576036 372.925677303 659.968576036 371.090661448 c 0
 659.968576036 371.051284142 659.978991971 371.021008029 660 371 c 0
 664 365 731 326 759 313 c 0
 775 306 814 291 847 279 c 2
 907 258 l 1
 898 231 l 1
 890 203 l 1
 836 221 l 2
121 233 m 2
 119 247 117 260 117 261 c 0
 117 263 135 267 157 271 c 0
 179 274 209 280 224 284 c 2
 252 290 l 1
 252 547 l 1
 309 547 l 1
 309 426 l 2
 309 327 310 306 315 306 c 0
 323 306 427 335 465 348 c 0
 482 354 496 358 496 358 c 0
 497 357 501 345 505 331 c 0
 508.336505136 321.597121888 511.120997057 315.506323074 511.120997057 310.857902641 c 0
 511.120997057 300.181118204 496.43118945 297.113715132 440 279 c 0
 346 250 234 224 143 209 c 2
 126 207 l 1
 121 233 l 2
EndSplineSet
EndChar

StartChar: uniE015
Encoding: 57365 57365 21
Width: 1024
Flags: H
LayerCount: 2
Fore
SplineSet
131 137 m 1
 124 148 118 159 118 161 c 0
 118 163 132 174 148 185 c 0
 239 245 329 329 371 394 c 0
 394 430 419 481 424 506 c 2
 427 519 l 1
 159 519 l 1
 159 576 l 1
 906 576 l 1
 906 519 l 1
 488 519 l 1
 483 502 l 2
 458 401 387 299 278 209 c 0
 236 174 156 117 149 117 c 0
 146 117 138 126 131 137 c 1
 131 137 l 1
EndSplineSet
EndChar

StartChar: uniE016
Encoding: 57366 57366 22
Width: 1024
Flags: H
LayerCount: 2
Fore
SplineSet
483 79 m 1
 483 137 l 1
 336 137 l 1
 336 194 l 1
 483 194 l 1
 483 268 l 1
 352 268 l 1
 352 588 l 1
 483 588 l 1
 483 662 l 1
 336 662 l 1
 336 719 l 1
 483 719 l 1
 483 801 l 1
 541 801 l 1
 541 719 l 1
 688 719 l 1
 688 662 l 1
 541 662 l 1
 541 588 l 1
 672 588 l 1
 672 268 l 1
 541 268 l 1
 541 194 l 1
 688 194 l 1
 688 137 l 1
 541 137 l 1
 541 22 l 1
 483 22 l 1
 483 79 l 1
614 362 m 1
 614 399 l 1
 409 399 l 1
 409 325 l 1
 614 325 l 1
 614 362 l 1
614 493 m 1
 614 530 l 1
 409 530 l 1
 409 457 l 1
 614 457 l 1
 614 493 l 1
EndSplineSet
EndChar

StartChar: uniE017
Encoding: 57367 57367 23
Width: 1024
Flags: H
LayerCount: 2
Fore
SplineSet
221 301 m 1
 221 559 l 1
 483 559 l 1
 483 633 l 1
 122 633 l 1
 122 690 l 1
 483 690 l 1
 483 789 l 1
 541 789 l 1
 541 690 l 1
 902 690 l 1
 902 633 l 1
 541 633 l 1
 541 559 l 1
 803 559 l 1
 803 42 l 1
 221 42 l 1
 221 301 l 1
746 147 m 1
 746 194 l 1
 278 194 l 1
 278 100 l 1
 746 100 l 1
 746 147 l 1
746 301 m 1
 746 346 l 1
 278 346 l 1
 278 256 l 1
 746 256 l 1
 746 301 l 1
746 454 m 1
 746 502 l 1
 278 502 l 1
 278 407 l 1
 746 407 l 1
 746 454 l 1
EndSplineSet
EndChar

StartChar: uniE018
Encoding: 57368 57368 24
Width: 1024
Flags: H
LayerCount: 2
Fore
SplineSet
268 53 m 1
 238 60 210 75 198 91 c 0
 184 112 181 132 181 235 c 2
 181 334 l 1
 238 334 l 1
 238 231 l 1
 260 234 l 2
 317 241 401 264 462 288 c 2
 503 305 l 1
 512 284 l 2
 517 273 522 261 522 257 c 0
 522.031034111 256.844829444 522.04644434 256.686234475 522.04644434 256.524284836 c 0
 522.04644434 241.030915249 381.006908442 194.83448474 286 179 c 0
 260 175 240 169 239 166 c 0
 238 164 239 153 240 143 c 0
 243 126 245 124 262 115 c 0
 280 107 288 107 368 107 c 0
 485 107 500 112 510 157 c 0
 512 169 516 180 518 181 c 0
 518.39355787 181.196778935 519.213057181 181.287072509 520.372776715 181.287072509 c 0
 531.000086461 181.287072509 570.196778935 173.704831598 572 171 c 0
 572.340261081 170.489608379 572.499619656 169.588467349 572.499619656 168.35813099 c 0
 572.499619656 155.125028193 554.064282029 103.809086218 544 91 c 0
 530 72 499 57 464 51 c 0
 447.664414373 48.4868329805 416.065141616 47.3772233983 382.576809136 47.3772233983 c 0
 336.114229749 47.3772233983 286.015303733 49.5131670195 268 53 c 1
 268 53 l 1
595 70 m 1
 589.576037586 82.3976283751 586.25345862 90.1421934015 586.25345862 95.8505426185 c 0
 586.25345862 104.876235221 594.559906035 108.811388301 616 118 c 0
 682 148 761 204 825 269 c 2
 864 309 l 1
 909 270 l 1
 866 227 l 2
 799 160 733 112 659 75 c 0
 630.14870589 60.312068453 616.707078432 53.3289702321 609.003867218 53.3289702321 c 0
 602.022239161 53.3289702321 599.754310162 59.0650866279 595 70 c 1
 595 70 l 1
593 289 m 2
 587 302 582 314 583 315 c 0
 584 316 595 322 607 328 c 0
 660 354 720 400 772 453 c 2
 806 489 l 1
 851 450 l 1
 808 407 l 2
 758 358 697 310 647 283 c 0
 628 273 611 264 609 264 c 0
 607 264 600 275 593 289 c 2
 593 289 l 2
184 353 m 1
 182 355 181 416 181 489 c 2
 181 621 l 1
 210 621 l 2
 236 621 238 620 238 613 c 0
 238 608 240 605 243 607 c 0
 243.148201107 607.088920664 243.344722063 607.132157106 243.586568245 607.132157106 c 0
 251.504113993 607.132157106 308 560.792518451 308 554 c 0
 308 552 301 541 292 531 c 0
 283.391007724 520.871773792 279.654611337 515.87259589 274.686901869 515.87259589 c 0
 269.844977614 515.87259589 263.83330593 520.621814897 251 530 c 2
 238 540 l 1
 238 469 l 1
 250 477 l 2
 272 493 307 521 325 537 c 2
 342 552 l 1
 320 572 l 2
 308 583 285 604 268 618 c 0
 252 631 238 644 238 647 c 0
 238 649 246 659 255 670 c 2
 272 691 l 1
 300 667 l 2
 316 654 341 632 357 618 c 2
 385 592 l 1
 469 690 l 1
 491 673 l 2
 503 664 513 655 513 654 c 0
 513 652 494 629 470 601 c 2
 427 551 l 1
 467 508 l 2
 492.824319143 480.13691882 502.022435702 470.285557105 505.579446649 470.285557105 c 0
 507.256510423 470.285557105 507.679587346 472.475460804 508 476 c 0
 508.253566341 477.141048535 508.394614876 478.249949125 508.394614876 479.369497863 c 0
 508.394614876 487.080369862 501.703637566 495.296362434 479 518 c 2
 448 550 l 1
 488 590 l 1
 509 570 l 1
 509 621 l 1
 567 621 l 1
 566 487 l 1
 564 353 l 1
 376 351 l 2
 272 351 185 352 184 353 c 1
 184 353 l 1
358 429 m 2
 349 438 341 446 341 448 c 0
 341 452 375 486 380 486 c 0
 382 486 397 473 413 457 c 0
 431.246718634 438.753281366 437.602625093 432.397374907 437.602625093 427.692705048 c 0
 437.602625093 425.177953229 435.786651819 423.134983296 433 420 c 0
 430.953308223 417.660923683 429.505037479 416.005757118 429.505037479 414.834535668 c 0
 429.505037479 412 437.987766123 412 467 412 c 2
 509 412 l 1
 509 455 l 1
 471 418 l 1
 384 510 l 1
 359 489 l 2
 331 465 272 420 268 420 c 0
 266 420 260 428 253 439 c 0
 247 449 241 457 240 457 c 0
 239 457 238 447 238 435 c 2
 238 412 l 1
 376 412 l 1
 358 429 l 1
 358 429 l 2
593 503 m 1
 586 517 583 529 585 530 c 0
 587 530 603 538 619 548 c 0
 653 567 702 611 725 644 c 0
 733 656 741 666 742 666 c 0
 747 666 788 640 788 636 c 0
 788 627 749 579 717 549 c 0
 686 520 633 484 613 479 c 0
 607 478 603 482 593 503 c 1
 593 503 l 1
115 650 m 1
 115 756 l 1
 894 756 l 1
 894 543 l 1
 837 543 l 1
 837 699 l 1
 388 699 l 1
 406 681 l 2
 415 672 423 662 423 660 c 0
 423 657 415 648 405 638 c 2
 386 620 l 1
 325 675 l 1
 342 699 l 1
 173 699 l 1
 173 543 l 1
 116 543 l 1
 115 650 l 1
EndSplineSet
EndChar

StartChar: uniE019
Encoding: 57369 57369 25
Width: 1024
Flags: H
LayerCount: 2
Fore
SplineSet
287 124 m 1
 287 235 l 1
 344 235 l 1
 344 120 l 1
 483 120 l 1
 483 276 l 1
 270 276 l 1
 270 333 l 1
 483 333 l 1
 483 440 l 1
 287 440 l 1
 287 497 l 1
 320 497 l 2
 327.090909091 497 332.859504132 496.669421488 337.341848234 496.669421488 c 0
 345.352615368 496.669421488 349.25506942 497.725296345 349.25506942 503.611128288 c 0
 349.25506942 512.545407383 340.263383813 532.608441623 323 577 c 0
 311.119484657 608.07211705 301.744531057 634.133110616 301.744531057 639.917665457 c 0
 301.744531057 640.462736121 301.827771591 640.827771591 302 641 c 0
 309.029321455 647.150656273 339.992270468 658.705680059 349.437678356 658.705680059 c 0
 350.74199412 658.705680059 351.635995546 658.485339272 352 658 c 0
 357 653 401 541 404 527 c 0
 406 516 405 515 382 506 c 2
 358 497 l 1
 596 499 l 1
 630 565 l 2
 648 601 669 645 676 663 c 0
 683 681 690 697 692 699 c 0
 692.284551339 699.284551339 692.919970359 699.416160356 693.842257144 699.416160356 c 0
 702.643559644 699.416160356 737.569102679 687.430897321 743 682 c 0
 743.265451948 681.734548052 743.394378469 681.204853341 743.394378469 680.428451805 c 0
 743.394378469 669.505537657 717.876384414 609.752768829 688 550 c 0
 675 523 664 500 664 499 c 0
 664 498 680 497 701 497 c 2
 738 497 l 1
 738 440 l 1
 541 440 l 1
 541 333 l 1
 754 333 l 1
 754 276 l 1
 541 276 l 1
 541 120 l 1
 680 120 l 1
 680 235 l 1
 738 235 l 1
 738 13 l 1
 680 13 l 1
 680 62 l 1
 344 62 l 1
 344 13 l 1
 287 13 l 1
 287 124 l 1
506 508 m 1
 505 512 502 526 500 539 c 0
 495 563 477 617 465 646 c 0
 461 655 460 663 461 665 c 0
 469.149094948 671.33818496 501.893652297 683.415311147 510.239486659 683.415311147 c 0
 511.110934674 683.415311147 511.716364983 683.283635017 512 683 c 0
 522 673 554 569 563 523 c 2
 565 510 l 1
 539 506 l 2
 524.148748316 503.215390309 516.620767143 501.723122473 512.517499858 501.723122473 c 0
 507.779454915 501.723122473 507.607695155 503.712812921 506 508 c 1
 506 508 l 1
287 697 m 1
 287 725 l 1
 333 728 l 2
 454 736 652 771 721 798 c 0
 726 800 729 795 735 777 c 0
 739 764 743 751 744 749 c 0
 744.060579016 748.878841969 744.090576222 748.751567576 744.090576222 748.618341498 c 0
 744.090576222 742.153932569 673.465331605 721.676911917 599 706 c 0
 502 686 369 669 310 669 c 2
 287 669 l 1
 287 697 l 1
EndSplineSet
EndChar

StartChar: uniE01A
Encoding: 57370 57370 26
Width: 1024
Flags: H
LayerCount: 2
Fore
SplineSet
431 203 m 2
 420 210 411 218 411 220 c 0
 411 223 417 233 424 243 c 0
 472 314 485 377 485 542 c 2
 485 616 l 1
 772 616 l 1
 772 283 l 1
 786 270 l 2
 795 261 802 256.5 809 256.5 c 0
 816 256.5 823 261 832 270 c 2
 846 283 l 1
 846 387 l 1
 903 387 l 1
 903 330 l 2
 903 267 899 252 874 227 c 0
 855 208 832 198.5 809 198.5 c 0
 786 198.5 763 208 744 227 c 0
 715 256 715 258 715 417 c 2
 715 559 l 1
 544 559 l 1
 541 472 l 2
 538 374 531 330 511 281 c 0
 496 245 462 190 455 190 c 0
 453 190 442 196 431 203 c 2
 431 203 l 2
125 237 m 2
 122 252 120 265 121 265 c 0
 122 266 132 269 145 271 c 0
 157 274 187 282 212 289 c 2
 256 302 l 1
 256 543 l 1
 157 543 l 1
 157 600 l 1
 428 600 l 1
 428 543 l 1
 313 543 l 1
 313 322 l 1
 337 331 l 2
 350 336 372 345 386 351 c 0
 400 357 412 362 413 362 c 0
 415.864076184 362 435.134017141 316.428153408 435.134017141 310.558337335 c 0
 435.134017141 310.279766602 435.090615877 310.090615877 435 310 c 0
 430 305 352 274 303 257 c 0
 250 239 149 211 136 210 c 0
 132 210 129 218 125 237 c 1
 125 237 l 2
605 357 m 0
 580 395 559 428 559 431 c 0
 559 435 596 461 603 461 c 0
 608 461 698 325 698 318 c 0
 698 314 662 288 655 288 c 0
 652 288 630 319 605 357 c 0
EndSplineSet
EndChar

StartChar: uniE01B
Encoding: 57371 57371 27
Width: 1024
Flags: H
LayerCount: 2
Fore
SplineSet
141 38 m 1
 126.585719681 54.336184362 114.941725723 69.7489399367 114.941725723 71.8150760898 c 0
 114.941725723 71.899032873 114.960952021 71.9609520213 115 72 c 0
 115 74 148 105 187 140 c 0
 242.090956687 190.422231544 256.203563788 204.225512394 256.203563788 211.53203867 c 0
 256.203563788 212.050481794 256.132509943 212.5362152 256 213 c 0
 254 218 253 262 253 311 c 2
 253 400 l 1
 130 400 l 1
 130 491 l 1
 346 488 l 1
 348 343 l 2
 350 183 350 183 377 161 c 0
 395 145 418 135 454 125 c 0
 483 116 496 116 697 114 c 2
 909 113 l 1
 909 23 l 1
 709 23 l 2
 489 23 457 26 398 47 c 0
 360 61 335 75 312 98 c 2
 294 115 l 1
 281 103 l 2
 229 55 175 7 172 7 c 0
 171 7 157 21 141 38 c 1
 141 38 l 1
261 625 m 1
 234 660 206 691 156 745 c 2
 142 760 l 1
 209 821 l 1
 246 782 l 2
 279 746 323 694 353 654 c 2
 364 639 l 1
 329 612 l 2
 310 597 294 585 293 585 c 0
 292 585 278 603 261 625 c 1
 261 625 l 1
EndSplineSet
EndChar

StartChar: uniE01C
Encoding: 57372 57372 28
Width: 1024
Flags: H
LayerCount: 2
Fore
SplineSet
122 330 m 1
 122 359 l 1
 401 359 l 1
 401 523 l 1
 459 523 l 1
 459 359 l 1
 565 359 l 1
 565 523 l 1
 623 523 l 1
 623 359 l 1
 689 361 l 1
 715 408 l 2
 729 433 746 466 752 481 c 0
 759 496 765 510 766 512 c 0
 766.283635017 512.283635017 766.898004084 512.415311147 767.784794271 512.415311147 c 0
 776.277560198 512.415311147 809.756360046 500.33818496 817 494 c 0
 817.332134463 493.750899153 817.491904393 493.1708584 817.491904393 492.292509218 c 0
 817.491904393 482.592622421 798.007193221 436.512588137 776 398 c 0
 766 379 758 363 758 361 c 0
 758 360 790 359 830 359 c 2
 902 359 l 1
 902 302 l 1
 123 302 l 1
 122 330 l 1
235 432 m 1
 206 489 l 1
 228 502 l 2
 241 509 253 514 256 513 c 0
 260 512 315 408 315 401 c 0
 315 398 273 375 267 375 c 0
 265 376 251 401 235 432 c 1
 235 432 l 1
EndSplineSet
EndChar

StartChar: uniE01D
Encoding: 57373 57373 29
Width: 1024
Flags: H
LayerCount: 2
Fore
SplineSet
127 121 m 2
 120 132 114 142 114 145 c 0
 114 147 130 159 150 173 c 0
 185 197 291 297 311 325 c 2
 320 339 l 1
 155 339 l 1
 155 396 l 1
 362 398 l 1
 382 431 l 2
 393 448 401 465 401 466 c 0
 401 468 353 470 295 470 c 2
 188 470 l 1
 188 527 l 1
 432 529 l 1
 445 562 l 2
 452 580 458 596 459 598 c 0
 459 600 398 601 323 601 c 2
 188 601 l 1
 188 658 l 1
 331 658 l 2
 464 658 475 659 477 666 c 0
 478 670 481 685 484 700 c 0
 486 716 489 728 491 728 c 0
 492 728 505 726 519 724 c 2
 546 719 l 1
 543 706 l 2
 542 699 540 685 538 676 c 2
 536 658 l 1
 836 658 l 1
 836 601 l 1
 520 599 l 1
 508 564 l 2
 501 545 496 529 496 528 c 0
 496 528 572 527 666 527 c 2
 836 527 l 1
 836 470 l 1
 729 470 l 2
 671 470 623 468 623 466 c 0
 623 465 631 448 642 431 c 2
 662 398 l 1
 869 396 l 1
 869 339 l 1
 704 339 l 1
 713 325 l 2
 733 297 839 197 874 173 c 0
 894 159 910 147 910 145 c 0
 910 137 884 101 879 101 c 0
 876 101 857 113 836 128 c 0
 790 161 692 257 656 305 c 2
 631 339 l 1
 393 339 l 1
 368 305 l 2
 332 257 234 161 188 128 c 0
 167 113 148 101 145 101 c 0
 142 101 134 110 127 121 c 2
 127 121 l 2
574 433 m 1
 555 470 l 1
 469 470 l 1
 430 396 l 1
 594 396 l 1
 574 433 l 1
EndSplineSet
EndChar

StartChar: uniE01E
Encoding: 57374 57374 30
Width: 1024
Flags: H
LayerCount: 2
Fore
SplineSet
291 49 m 1
 284 60 278 71 278 73 c 0
 278 74 295 87 316 101 c 0
 361 130 393 157 418 187 c 0
 437 209 460 251 465 271 c 2
 468 282 l 1
 303 282 l 1
 303 504 l 1
 483 504 l 1
 483 569 l 1
 369 569 l 1
 368 580 l 1
 366 590 l 1
 340 572 l 2
 325 561 311 553 309 553 c 0
 304 553 278 589 278 597 c 0
 278 599 289 608 302 617 c 0
 356 652 407 702 463 771 c 2
 485 799 l 1
 539 799 l 1
 561 771 l 2
 617 702 668 652 722 617 c 0
 735 608 746 599 746 597 c 0
 746 589 720 553 715 553 c 0
 713 553 699 561 684 572 c 2
 658 590 l 1
 655 569 l 1
 541 569 l 1
 541 504 l 1
 721 504 l 1
 721 282 l 1
 637 282 l 2
 621.285714286 282 608.216931217 282.125976316 597.469711694 282.125976316 c 0
 566.27757936 282.125976316 554.641376636 281.064801842 554.641376636 272.782665315 c 0
 554.641376636 265.940709856 562.582592353 254.17075351 574 234 c 0
 609 174 660 125 719 93 c 0
 732 86 744 80 745 79 c 0
 745.175614172 78.824385828 745.258707332 78.4945699691 745.258707332 78.0292075354 c 0
 745.258707332 70.5448282967 723.765847771 28 720 28 c 0
 718 28 709 32 699 37 c 0
 635 70 573 126 535 187 c 2
 511 225 l 1
 497 200 l 2
 480 167 452 134 419 105 c 0
 390 79 315 28 308 28 c 0
 306 28 298 37 291 49 c 1
 291 49 l 1
481 349 m 2
 482 354 483 378 483 402 c 2
 483 446 l 1
 360 446 l 1
 360 340 l 1
 419 340 l 2
 477 340 478 340 481 349 c 2
 481 349 l 2
664 393 m 1
 664 446 l 1
 541 446 l 1
 541 340 l 1
 664 340 l 1
 664 393 l 1
585 655 m 2
 570 670 549 695 537 709 c 0
 525 724 514 735 512 735 c 0
 510 735 499 724 487 709 c 0
 475 695 454 670 439 655 c 2
 413 627 l 1
 611 627 l 1
 585 655 l 2
EndSplineSet
EndChar

StartChar: uniE01F
Encoding: 57375 57375 31
Width: 1024
Flags: H
LayerCount: 2
Fore
SplineSet
483 409 m 1
 483 799 l 1
 541 799 l 1
 541 20 l 1
 483 20 l 1
 483 409 l 1
EndSplineSet
EndChar

StartChar: uniE020
Encoding: 57376 57376 32
Width: 1024
Flags: H
LayerCount: 2
Fore
SplineSet
341 281 m 2
 341 424 340 541 339 541 c 0
 338 541 320 533 300 523 c 0
 280 513 262 504 260 504 c 0
 256.234152229 504 234.741292668 547.431178886 234.741292668 554.18486326 c 0
 234.741292668 554.604792675 234.824385828 554.882923885 235 555 c 0
 236 556 263 570 296 586 c 0
 329 603 370 624 388 634 c 0
 449 669 548 737 591 774 c 2
 634 812 l 1
 673 769 l 1
 656 753 l 2
 630 729 562 676 545 665 c 2
 530 655 l 1
 532 632 l 2
 540 560 557 466 566 451 c 0
 566.317715449 450.523426826 566.90180854 450.293603469 567.730453051 450.293603469 c 0
 582.550613407 450.293603469 675.594676167 523.806486466 722 574 c 2
 745 599 l 1
 790 559 l 1
 753 522 l 2
 715 485 654 434 610 404 c 0
 591 391 587 386 589 380 c 0
 591 375 604 347 618 317 c 0
 652 247 700 175 747 126 c 0
 767 105 784 84 784 81 c 0
 784 78 775 67 765 57 c 2
 745 39 l 1
 725 62 l 2
 654 140 617 192 577 267 c 0
 531 356 496 465 481 567 c 2
 474 617 l 1
 398 573 l 1
 398 20 l 1
 341 20 l 1
 341 281 l 2
EndSplineSet
EndChar

StartChar: uniE021
Encoding: 57377 57377 33
Width: 1024
Flags: H
LayerCount: 2
Fore
SplineSet
766 228 m 2
 742 259 738 263 727 263 c 0
 720 262 673 257 621 252 c 0
 509 239 348 226 255 222 c 2
 188 219 l 1
 188 277 l 1
 313 283 l 1
 368 388 l 2
 397 446 422 495 422 496 c 0
 422 498 362 499 289 499 c 2
 155 499 l 1
 155 557 l 1
 483 557 l 1
 483 639 l 1
 541 639 l 1
 541 557 l 1
 869 557 l 1
 869 499 l 1
 489 499 l 1
 437 396 l 2
 409.17818929 342.275124146 386.878755401 295.913417387 386.878755401 291.351996861 c 0
 386.878755401 291.158831259 386.918745566 291.040627217 387 291 c 0
 387.355743887 290.644256113 389.459510933 290.478342796 393.040473431 290.478342796 c 0
 429.724011692 290.478342796 621.425094272 307.889359717 677 317 c 2
 693 319 l 1
 681 334 l 2
 674 343 652 368 631 390 c 2
 594 431 l 1
 637 471 l 1
 657 449 l 2
 723 376 798 286 827 244 c 2
 840 225 l 1
 792 192 l 1
 766 228 l 2
EndSplineSet
EndChar

StartChar: uniE022
Encoding: 57378 57378 34
Width: 1024
Flags: H
LayerCount: 2
Fore
SplineSet
487 379 m 1
 487 572 l 1
 544 572 l 1
 544 186 l 1
 487 186 l 1
 487 379 l 1
244 267 m 1
 213 331 181 382 141 431 c 2
 114 465 l 1
 158 502 l 1
 181 474 l 2
 217 431 265 356 293 301 c 0
 311.196424063 263.567356214 319.662272981 247.217625241 319.662272981 238.319868863 c 0
 319.662272981 230.103192638 312.44286075 228.241328205 299 222 c 0
 285 216 274 211 273 211 c 0
 272 211 259 236 244 267 c 1
 244 267 l 1
725 226 m 2
 716 235 708 243 708 244 c 0
 708 246 723 267 741 291 c 0
 781 344 806 386 837 449 c 0
 850 475 861 496 862 497 c 0
 863 498 874 494 888 487 c 0
 902.316767252 480.796067524 909.801207019 478.919275789 909.801207019 470.718457512 c 0
 909.801207019 461.734911191 900.819879298 445.162533021 882 407 c 0
 843 331 761 211 748 211 c 0
 745 211 735 218 725 226 c 2
 725 226 l 2
EndSplineSet
EndChar

StartChar: uniE023
Encoding: 57379 57379 35
Width: 1024
Flags: H
LayerCount: 2
Fore
SplineSet
122 351 m 1
 122 437 l 1
 219 437 l 2
 272 437 315 438 315 438 c 0
 315 439 307 458 296 480 c 0
 286.568106761 500.750165125 278.915425724 517.941905847 278.915425724 520.667351472 c 0
 278.915425724 520.831511948 278.943189324 520.943189324 279 521 c 0
 282 524 323 544 326 544 c 0
 328 544 342 520 356 490 c 2
 383 437 l 1
 441 437 l 2
 473 437 500 438 500 439 c 0
 500 440 491 458 481 480 c 0
 471.568106761 500.750165125 463.915425724 518.831511948 463.915425724 520.818968844 c 0
 463.915425724 520.938678394 463.943189324 521 464 521 c 0
 468.709054561 526.650865474 508.898420902 541.171808892 516.065822172 541.171808892 c 0
 516.508654737 541.171808892 516.825432737 541.116378175 517 541 c 0
 518 539 530 515 542 488 c 2
 564 439 l 1
 674 439 l 1
 696 489 l 2
 709 516 720 540 722 541 c 0
 722.110218293 541.110218293 722.351028359 541.162733243 722.708371332 541.162733243 c 0
 728.835305426 541.162733243 769.220436585 525.724454269 773 521 c 0
 773.056810676 521 773.084574276 520.938678394 773.084574276 520.818968844 c 0
 773.084574276 518.831511948 765.431893239 500.750165125 756 480 c 2
 738 439 l 1
 902 437 l 1
 902 265 l 1
 844 265 l 1
 844 380 l 1
 180 380 l 1
 180 265 l 1
 122 265 l 1
 122 351 l 1
EndSplineSet
EndChar

StartChar: uniE024
Encoding: 57380 57380 36
Width: 1024
Flags: H
LayerCount: 2
Fore
SplineSet
145 23 m 1
 131 28 120 32 119 32 c 0
 118 33 122 44 126 57 c 0
 143 103 167 206 175 262 c 0
 187 347 192 427 192 581 c 2
 192 719 l 1
 520 719 l 1
 520 801 l 1
 577 801 l 1
 577 719 l 1
 905 719 l 1
 905 662 l 1
 249 662 l 1
 249 571 l 1
 389 571 l 1
 389 653 l 1
 446 653 l 1
 446 571 l 1
 684 571 l 1
 684 653 l 1
 741 653 l 1
 741 571 l 1
 905 571 l 1
 905 514 l 1
 741 514 l 1
 741 399 l 1
 389 399 l 1
 389 514 l 1
 250 514 l 1
 248 433 l 2
 244 321 235 244 214 153 c 0
 202 103 175 14 172 14 c 0
 170 14 158 18 145 23 c 1
 145 23 l 1
684 485 m 1
 684 514 l 1
 446 514 l 1
 446 457 l 1
 684 457 l 1
 684 485 l 1
EndSplineSet
EndChar

StartChar: uniE025
Encoding: 57381 57381 37
Width: 1024
Flags: HO
LayerCount: 2
Fore
SplineSet
468 127 m 1
 468 232 l 1
 440 208 l 2
 401 175 347 140 288 110 c 0
 250.611678004 91.305839002 233.986718251 82.5888780429 224.82259712 82.5888780429 c 0
 216.339049508 82.5888780429 214.249330751 90.0591852484 208 104 c 0
 202 118 197 130 198 130 c 0
 199 131 223 143 251 156 c 0
 310 185 378 229 413 261 c 2
 437 284 l 1
 238 284 l 1
 238 473 l 1
 755 473 l 1
 755 379 l 2
 755 294 754 284 748 284 c 0
 744 284 750 278 761 270 c 0
 771 262 780 254 780 252 c 0
 780 247 719 171 704 158 c 0
 698 152 694 146 694 145 c 0
 694 140 739 118 782 102 c 0
 804 94 824 86 826 85 c 0
 826.1510004 84.8489995997 826.222196878 84.4870888311 826.222196878 83.9426722658 c 0
 826.222196878 77.276292514 815.546998799 43.2449979984 810 34 c 0
 809.718980902 33.5316348359 808.920258215 33.30895951 807.663834063 33.30895951 c 0
 795.507388849 33.30895951 740.503694424 54.154479755 697 75 c 0
 640 104 611 125 565 170 c 2
 525 209 l 1
 525 22 l 1
 468 22 l 1
 468 127 l 1
700 242 m 1
 717 262 731 280 731 282 c 0
 731 283 689 284 638 284 c 2
 546 284 l 1
 559 265 l 2
 566 254 587 230 606 211 c 2
 640 176 l 1
 655 190 l 2
 663 198 683 221 700 242 c 1
 700 242 l 1
698 379 m 1
 698 416 l 1
 296 416 l 1
 296 342 l 1
 698 342 l 1
 698 379 l 1
206 559 m 1
 206 588 l 1
 468 588 l 1
 468 662 l 1
 238 662 l 1
 238 719 l 1
 468 719 l 1
 468 801 l 1
 525 801 l 1
 525 719 l 1
 755 719 l 1
 755 662 l 1
 525 662 l 1
 525 588 l 1
 788 588 l 1
 788 530 l 1
 206 530 l 1
 206 559 l 1
EndSplineSet
EndChar
